# xmcd
#
# Track frame offsets: 
#        150
#        11713
#        23945
#        38218
#        52413
#        65611
#        77978
#        91504
#        103521
#        114830
#
# Disc length: 1731 seconds
#
# Revision: 2
# Processed by: cddbd v1.5.1PL2 Copyright (c) Steve Scherf et al.
# Submitted via: ExactAudioCopy v0.95b4
#
DISCID=7b06c10a
DTITLE=Janie Frickie - Saddle The Wind
DYEAR=1988
DGENRE=Country
TTITLE0=Sugar Moon
TTITLE1=I'll Walk Before I'll Crawl
TTITLE2=Heart
TTITLE3=I'm Not That Good At Goodbye
TTITLE4=Don't Touch Me
TTITLE5=Where Does Love Go (When It's Gone)
TTITLE6=If I Were Only Her Tonight
TTITLE7=The Healing Hands Of Time
TTITLE8=Crazy Dreams
TTITLE9=Saddle The Wind
EXTD=
EXTT0=
EXTT1=
EXTT2=
EXTT3=
EXTT4=
EXTT5=
EXTT6=
EXTT7=
EXTT8=
EXTT9=
PLAYORDER=
